HIERARCHY
ROOT Hips
{
 OFFSET 0.000000 0.000000 0.000000
 CHANNELS 6 Xposition Yposition Zposition Yrotation Xrotation Zrotation
 JOINT Chest
 {
  OFFSET 0.000000 9.585900 0.002600
  CHANNELS 3 Yrotation Xrotation Zrotation
  JOINT Chest2
  {
   OFFSET 0.000000 9.601200 -0.005300
   CHANNELS 3 Yrotation Xrotation Zrotation
   JOINT Chest3
   {
    OFFSET 0.000000 9.561800 0.000000
    CHANNELS 3 Yrotation Xrotation Zrotation
    JOINT Chest4
    {
     OFFSET 0.000000 9.552100 0.000000
     CHANNELS 3 Yrotation Xrotation Zrotation
     JOINT Neck
     {
      OFFSET 0.000000 14.453000 0.000000
      CHANNELS 3 Yrotation Xrotation Zrotation
      JOINT Head
      {
       OFFSET 0.000000 8.936500 -0.011300
       CHANNELS 3 Yrotation Xrotation Zrotation
       End Site
       {
        OFFSET 0.000000 17.073600 -0.006000
       }
      }
     }
     JOINT RightCollar
     {
      OFFSET -2.921100 9.558500 0.000000
      CHANNELS 3 Yrotation Xrotation Zrotation
      JOINT RightShoulder
      {
       OFFSET -13.519700 0.000000 0.000000
       CHANNELS 3 Yrotation Xrotation Zrotation
       JOINT RightElbow
       {
        OFFSET 0.000000 -29.696600 0.000000
        CHANNELS 3 Yrotation Xrotation Zrotation
        JOINT RightWrist
        {
         OFFSET 0.000000 -24.004700 0.000000
         CHANNELS 3 Yrotation Xrotation Zrotation
         End Site
         {
          OFFSET 0.000000 -17.728500 0.000000
         }
        }
       }
      }
     }
     JOINT LeftCollar
     {
      OFFSET 2.921100 9.558500 0.000000
      CHANNELS 3 Yrotation Xrotation Zrotation
      JOINT LeftShoulder
      {
       OFFSET 13.519700 0.000000 0.000000
       CHANNELS 3 Yrotation Xrotation Zrotation
       JOINT LeftElbow
       {
        OFFSET 0.000000 -29.696600 0.000000
        CHANNELS 3 Yrotation Xrotation Zrotation
        JOINT LeftWrist
        {
         OFFSET 0.000000 -24.004700 0.000000
         CHANNELS 3 Yrotation Xrotation Zrotation
         End Site
         {
          OFFSET 0.000000 -17.728500 0.000000
         }
        }
       }
      }
     }
    }
   }
  }
 }
 JOINT RightHip
 {
  OFFSET -7.771700 -0.012900 -0.001300
  CHANNELS 3 Yrotation Xrotation Zrotation
  JOINT RightKnee
  {
   OFFSET 0.000000 -40.869800 0.001200
   CHANNELS 3 Yrotation Xrotation Zrotation
   JOINT RightAnkle
   {
    OFFSET 0.000000 -39.717900 0.002100
    CHANNELS 3 Yrotation Xrotation Zrotation
    JOINT RightToe
    {
     OFFSET 0.000000 -4.965400 11.033500
     CHANNELS 3 Yrotation Xrotation Zrotation
     End Site
     {
      OFFSET 0.000000 -1.423100 5.872300
     }
    }
   }
  }
 }
 JOINT LeftHip
 {
  OFFSET 7.771700 -0.012900 -0.001300
  CHANNELS 3 Yrotation Xrotation Zrotation
  JOINT LeftKnee
  {
   OFFSET 0.000000 -40.869800 0.001200
   CHANNELS 3 Yrotation Xrotation Zrotation
   JOINT LeftAnkle
   {
    OFFSET 0.000000 -39.717900 0.002100
    CHANNELS 3 Yrotation Xrotation Zrotation
    JOINT LeftToe
    {
     OFFSET 0.000000 -4.965400 11.033500
     CHANNELS 3 Yrotation Xrotation Zrotation
     End Site
     {
      OFFSET 0.000000 -1.423100 5.872300
     }
    }
   }
  }
 }
}
MOTION
Frames: 8
Frame Time: 0.008333
0.000000 85.388000 0.000000 0.000000 -5.767877 0.000000 0.000000 11.653817 0.000000 0.000000 -5.885947 0.000000 0.000000 -0.000000 0.000000 0.000000 -0.000000 0.000000 0.000000 12.528835 0.000000 0.000000 0.711642 0.000000 0.000000 -0.000000 0.000000 0.000000 0.000000 -90.000000 0.000000 -2.309062 0.000000 0.000000 2.309062 0.000000 0.000000 -0.000000 0.000000 0.000000 -0.000000 90.000000 0.000000 -2.309062 0.000000 0.000000 2.309062 0.000000 0.000000 8.520406 0.000000 0.000000 1.905762 0.000000 -0.000000 -4.658285 0.000000 0.000000 -0.000000 0.000000 0.000000 8.520406 0.000000 0.000000 1.905762 0.000000 -0.000000 -4.658285 0.000000 0.000000 -0.000000 0.000000
-204.050559 57.785608 -66.646799 159.825214 -6.764950 -0.006071 3.447166 7.079207 1.588287 0.148507 0.329705 0.042392 0.273609 0.600263 0.063227 3.124524 6.728834 0.935722 -1.234674 16.861351 0.163824 -2.326676 -4.473236 0.713783 1.836882 9.112311 0.832000 0.871613 -9.494638 -7.867752 -56.398829 -60.810349 92.714985 -3.290024 4.004018 -13.749630 -5.543653 8.113813 -2.725291 7.086485 -5.567922 6.340890 86.727574 -80.009164 -123.830692 -3.568833 8.840306 10.372445 -17.336304 -64.793139 9.549372 -32.665586 72.219506 -32.907523 -3.175388 -6.890136 -1.700052 -0.341831 0.656129 -0.201107 0.698469 -67.450887 16.488421 41.955549 65.715654 34.851055 -17.632075 -10.356304 3.809110 -0.080596 -0.928940 0.008286
-204.045366 57.785866 -66.636415 159.815428 -6.754812 -0.016860 3.447152 7.052226 1.607208 0.154197 0.338716 0.037574 0.269630 0.591870 0.066245 3.132765 6.741333 0.927574 -1.224542 16.866598 0.158395 -2.262813 -4.452147 0.665697 1.833327 9.116199 0.842563 0.851673 -9.470674 -7.894446 -56.393770 -60.864854 92.692634 -3.264895 4.020214 -13.762709 -5.519305 8.152275 -2.718250 7.163887 -5.506448 6.237274 86.812131 -80.019212 -123.907484 -3.572980 8.838621 10.356736 -17.401159 -64.798333 9.605882 -32.649748 72.215754 -32.855739 -3.193642 -6.879801 -1.761466 -0.297955 0.646383 -0.182409 0.682057 -67.454918 16.524803 41.936636 65.696124 34.820252 -17.627759 -10.335154 3.808635 -0.088623 -0.918247 0.003586
-204.041148 57.786440 -66.629657 159.814205 -6.767775 -0.008924 3.442625 7.058517 1.604945 0.154585 0.338951 0.037306 0.270348 0.592317 0.065773 3.136291 6.745662 0.921377 -1.205216 16.871654 0.145811 -2.231884 -4.445586 0.642687 1.823903 9.119370 0.847112 0.835605 -9.439762 -7.920183 -56.393308 -60.913845 92.677368 -3.269248 4.022082 -13.752035 -5.465669 8.222425 -2.696062 7.217599 -5.473447 6.125869 86.915211 -80.027338 -124.007285 -3.580204 8.830897 10.333551 -17.391006 -64.788319 9.589794 -32.645102 72.215138 -32.847458 -3.187811 -6.879455 -1.750981 -0.304225 0.645205 -0.189604 0.705878 -67.439412 16.507559 41.925129 65.681213 34.800335 -17.621017 -10.296152 3.802511 -0.096624 -0.928925 0.004452
-204.035612 57.786816 -66.622349 159.795342 -6.782699 -0.002326 3.456069 7.067459 1.607036 0.154993 0.339244 0.037029 0.271624 0.593573 0.064025 3.142996 6.745138 0.917155 -1.190403 16.876442 0.134815 -2.207018 -4.440242 0.619507 1.820468 9.126821 0.853868 0.822526 -9.424172 -7.937666 -56.350548 -60.954210 92.609519 -3.292111 3.997286 -13.714285 -5.439512 8.259255 -2.682229 7.295551 -5.407537 6.031907 87.036322 -80.031374 -124.130266 -3.587991 8.824259 10.308124 -17.409996 -64.775700 9.609039 -32.631518 72.214308 -32.825948 -3.190181 -6.869824 -1.764262 -0.292192 0.636132 -0.189154 0.740005 -67.418542 16.503360 41.898168 65.670571 34.764726 -17.624389 -10.265750 3.795675 -0.117408 -0.895616 -0.011735
-204.032396 57.786616 -66.613534 159.751595 -6.784469 0.020459 3.494138 7.066661 1.593639 0.155116 0.338175 0.038572 0.273280 0.596893 0.059293 3.147348 6.741993 0.915824 -1.163546 16.880377 0.112876 -2.196636 -4.435911 0.612164 1.796354 9.142828 0.855015 0.830232 -9.416804 -7.955006 -56.316057 -60.976611 92.564562 -3.269056 4.019111 -13.733829 -5.412961 8.291152 -2.667928 7.372687 -5.340813 5.947816 87.167384 -80.033148 -124.266573 -3.592515 8.820300 10.285155 -17.383612 -64.778033 9.596752 -32.605803 72.204530 -32.765372 -3.214535 -6.866371 -1.813518 -0.253698 0.638910 -0.173299 0.825471 -67.414115 16.463130 41.886186 65.662217 34.748630 -17.636905 -10.216772 3.790614 -0.122086 -0.910733 -0.017343
-204.027768 57.786407 -66.607828 159.722865 -6.805337 0.041812 3.519815 7.087589 1.578288 0.156011 0.334839 0.043606 0.270707 0.597967 0.057991 3.156727 6.744971 0.910580 -1.154812 16.882011 0.103554 -2.181604 -4.434860 0.598698 1.778278 9.148726 0.854207 0.811644 -9.387488 -7.986105 -56.360608 -60.974293 92.637127 -3.243997 4.067726 -13.773994 -5.406042 8.304027 -2.659492 7.464377 -5.264641 5.879739 87.298156 -80.036269 -124.404278 -3.593524 8.818404 10.267466 -17.359221 -64.760752 9.574247 -32.562762 72.204497 -32.712328 -3.210925 -6.870051 -1.830258 -0.243922 0.644104 -0.160392 0.896470 -67.391891 16.419766 41.878250 65.658100 34.739449 -17.635736 -10.174623 3.792961 -0.143159 -0.923788 -0.032013
-204.023763 57.785735 -66.602306 159.698809 -6.823636 0.067155 3.539902 7.101653 1.563984 0.159483 0.336551 0.042327 0.272043 0.595676 0.063036 3.158956 6.752290 0.901662 -1.145706 16.883102 0.092342 -2.188077 -4.435420 0.604219 1.765189 9.150228 0.852349 0.757397 -9.322396 -8.043585 -56.365290 -60.976360 92.688019 -3.240657 4.078034 -13.783538 -5.400080 8.314434 -2.652232 7.556076 -5.191006 5.820035 87.429818 -80.040880 -124.544077 -3.594459 8.820253 10.253429 -17.403537 -64.748076 9.593945 -32.474573 72.218942 -32.638586 -3.181887 -6.865882 -1.837037 -0.255361 0.639322 -0.185275 0.964536 -67.366574 16.376261 41.869663 65.645656 34.723899 -17.652284 -10.131647 3.789340 -0.147469 -0.938545 -0.037587
